<svg width="19" height="19" xmlns="http://www.w3.org/2000/svg"><path d="M14.547 19H4.453A4.458 4.458 0 0 1 0 14.547V4.453A4.458 4.458 0 0 1 4.453 0h10.094A4.458 4.458 0 0 1 19 4.453v10.094A4.458 4.458 0 0 1 14.547 19zM1.484 4.453v10.094a2.972 2.972 0 0 0 2.97 2.969h10.093a2.972 2.972 0 0 0 2.969-2.97V4.454a2.972 2.972 0 0 0-2.97-2.969H4.454a2.972 2.972 0 0 0-2.969 2.97zM9.5 14.324A4.83 4.83 0 0 1 4.676 9.5a5.58 5.58 0 0 1 .454-2.043c1.89-4.263 8.962-3.58 9.194 2.043A4.83 4.83 0 0 1 9.5 14.324zm0-8.164A3.344 3.344 0 0 0 6.16 9.5c.18 4.35 6.27 4.428 6.664.237.007-.079.013-.158.016-.237A3.344 3.344 0 0 0 9.5 6.16zm5.232-2.82a.928.928 0 1 0 0 1.855.928.928 0 0 0 0-1.855z" fill="#95989a" fill-rule="evenodd"/></svg>