<svg width="24.68" height="17.28" xmlns="http://www.w3.org/2000/svg"><path d="M24.172 2.703A3.092 3.092 0 0 0 21.997.527a5.602 5.602 0 0 0-.571-.117c-2.343-.378-8.042-.408-8.96-.411a50.934 50.934 0 0 0-.24 0c-.884.002-6.715.03-9.03.404a5.511 5.511 0 0 0-.513.104A3.155 3.155 0 0 0 .508 2.703a8.47 8.47 0 0 0-.145.676C0 5.437 0 8.64 0 8.64v.077c.003.537.038 3.725.435 5.554.022.102.047.204.073.305a3.092 3.092 0 0 0 2.176 2.175c1.804.489 8.526.526 9.53.529a50.776 50.776 0 0 0 .24 0c.96-.003 7.75-.036 9.543-.509a3.092 3.092 0 0 0 2.175-2.175c.058-.223.106-.449.145-.676.363-2.059.363-5.26.363-5.26s.019-3.67-.44-5.683a6.55 6.55 0 0 0-.068-.273zM9.88 12.339v-7.4l6.424 3.7-6.424 3.7z" fill="#95989a" fill-rule="evenodd"/></svg>